<svg xmlns="http://www.w3.org/2000/svg" width="1024" height="1024" viewBox="0 0 1024 1024"><path fill="#64f343" d="M0 0h1024v1024H0z"/><path fill="#fdfefc" d="M265.259 445.242c3.828-49.625 31.858-96.897 69.426-128.869 106.352-90.513 292.218-84.872 385.4 22.504 25.233 29.077 43.584 67.832 46.093 106.541 13.831 1.502 23.28 6.151 32.123 17.334 18.841 23.826 22.585 61.304 19.216 90.681-2.397 20.899-10.127 46.751-27.442 60.076-9.754 7.506-19.36 8.993-31.351 8.952-9.356 12.302-18.331 14.614-33.48 14.485 4.934 10.906 11.922 14.768 12.586 29.567.459 10.231.182 18.26-7.207 26.588a29.52 29.52 0 0 1-14.086 8.85c-5.789 1.646-23.526 2.227-30.33 2.668a2933 2933 0 0 1-50.368 3.262c-2.99 19.517-7.173 39-10.192 58.535-.958 6.199-2.017 13.973-3.844 19.858a26.3 26.3 0 0 1-4.864 8.954c-8.525 10.245-24.675 14.227-36.5 6.895-7.474-4.635-15.586-11.808-22.533-17.399-12.189-9.812-24.746-19.487-36.645-29.634a3277 3277 0 0 1-40.393 36.239c-4.596 4.041-14.298 12.905-18.935 15.904a27.8 27.8 0 0 1-8.933 3.746 28.34 28.34 0 0 1-21.715-3.603 27.53 27.53 0 0 1-10.181-12.022c-2.292-5.362-4.505-18.743-5.802-24.968-3.45-16.56-6.456-33.321-10.023-49.868l-52.448 3.098c-9.602.582-19.846 1.649-29.482 1.117-11.606-.642-22.529-10.166-24.914-21.421-3.947-18.631 4.003-30.054 13.016-45.362 4.712-8.004 9.288-16.299 14.336-24.341-18.324 5.875-42.145 6.608-54.11-11.195-16.595-.21-24.343-1.748-36.998-13.476-36.999-34.288-31.811-161.81 30.58-163.696"/><path fill="#151414" d="M265.259 445.242c3.828-49.625 31.858-96.897 69.426-128.869 106.352-90.513 292.218-84.872 385.4 22.504 25.233 29.077 43.584 67.832 46.093 106.541 13.831 1.502 23.28 6.151 32.123 17.334 18.841 23.826 22.585 61.304 19.216 90.681-2.397 20.899-10.127 46.751-27.442 60.076-9.754 7.506-19.36 8.993-31.351 8.952-9.356 12.302-18.331 14.614-33.48 14.485-2.517-1.956-18.289.623-29.301-10.907-6.433-6.736-7.864-17.888-7.706-26.822l3.871-2.161c2.052-1.108 3.842-2.531 5.722-3.918 4.84-6.09 5.222-32.876 5.609-41.652l-1.086-1.534c.141-.143.295-.273.421-.428 2.749-3.359.863-37.871.658-44.285l-29.366-10.529c-4.747-1.667-21.335-6.972-24.462-9.271-2.893-4.902.622-21.497 1.513-27.798l6.057-42.356c.385-2.614.969-7.357 1.434-9.734 3.725-19.03-3.116-16.528-17.033-9.939-2.557 1.21-7.179 3.3-10.172 4.652l-36.716 16.218c-4.757 2.108-10.642 5.591-15.733 6.226-1.42.177-2.405-.114-3.476-1.068-4.095-3.648-7.052-10.542-9.872-15.252-4.904-8.19-33.65-58.551-37.53-61.343-.87-.626-1.696-.783-2.744-.528-6.051 1.471-16.403 22.578-19.838 28.401-4.179 7.084-29.048 50.935-33.434 53.848-1.358.902-2.586.772-4.13.51-14.185-2.406-79.49-30.227-86.59-27.836-2.117.713-2.835 4.033-2.928 5.951-.26 5.384 1.52 11.636 2.472 16.938l7.861 42.683c1.159 6.202 5.285 22.419 3.015 27.887-4.165 2.969-60.325 22.912-64.995 23.587-.226 4.838-1.463 30.903.875 33.477.1.109.216.203.324.304-.46.583-1.701 2.159-1.709 2.884-.119 10.799 1.322 22.615 2.121 33.386.278 3.74 1.179 7.264 3.71 9.305 2.154 1.159 4.094 2.388 5.489 4.432l-.084 1.492.794-.411c1.812.988 2.923 2.151 4.438 3.529-.798 3.342-2.18 5.186-2.942 7.759-3.073 10.382-4.557 14.644-13.994 20.966-18.324 5.875-42.145 6.608-54.11-11.195-16.595-.21-24.343-1.748-36.998-13.476-36.999-34.288-31.811-161.81 30.58-163.696"/><defs><linearGradient id="a" x1="667.392" x2="782.59" y1="576.252" y2="488.38" gradientUnits="userSpaceOnUse"><stop offset="0" stop-color="#1b1a1a"/><stop offset="1" stop-color="#474747"/></linearGradient></defs><path fill="url(#a)" d="M704.062 439.791c10.193-5.656 23.324-5.454 34.493-2.833 15.932 4.063 20.156 23.84 22.336 38.218 3.004 19.805 4.734 38.728 4.207 59.386-.649 25.42-1.78 62.853-13.939 85.724-5.711 10.742-30.389 10.823-39.972 7.613-13.479-3.665-17.279-19.046-19.079-30.843 2.052-1.108 3.842-2.531 5.722-3.918 1.571 3.868-1.919 8.549 2.139 10.487 4.307-1.625 6.86-19.698 7.381-24.297 3.794-33.516 6.279-77.262-2.7-109.894.309-3.059-2.995-11.149-4.195-14.069-1.827-1.329-2.363-1.584-4.465-2.485l-.561-.237c-.277-3.799 6.585-9.566 8.633-12.852"/><defs><linearGradient id="b" x1="358.733" x2="251.349" y1="558.559" y2="507.855" gradientUnits="userSpaceOnUse"><stop offset="0" stop-color="#171616"/><stop offset="1" stop-color="#464646"/></linearGradient></defs><path fill="url(#b)" d="M319.408 446.452c2.796-1.445 7.154-4.472 10.158-3.322.861 3.194 4.048 8.077 5.835 10.992 4.423 7.215 4.656 16.382 6.103 24.532.46 2.645 1.358 5.022 1.087 7.52-2.007.737-3.173 1.006-5.272 1.493l-.51-.371c.038-2.422.582-6.183-1.283-7.881l-.409.342c.573 2.58 1.811 5.53.069 7.761-1.643 2.106-3.008 3.827-5.721 2.405-.763-6.381 4.26-18.031 4.332-24.79.015-1.438-3.933-1.627-4.848-1.567-12.388 8.595-11.199 112.096-4.391 129.031 1.312 3.263 2.053 13.91 5.716 14.909 3.07-2.313 2.015-8.138 1.812-11.664 2.154 1.159 4.094 2.388 5.489 4.432l-.084 1.492c-2.957 9.038-6.007 23.603-16.501 25.909-30.564 6.715-44.941-.361-49.902-31.011-6.402-39.563-7.287-75.026-2.392-114.488.846-6.815 2.365-17.807 5.191-23.373 1.284 1.233 2.589 2.363 3.925 3.537 3.656 1.582 9.335 4.12 13.174 5.162 10.691-1.644 9.464-4.298 16.932-11.004 1.298-1.167 7.32-4.258 9.889-6.31.368-1.334.433-1.671 1.119-2.893z"/><path fill="#232222" d="M277.812 462.34c3.656 1.582 9.335 4.12 13.174 5.162-5.043.378-10.84-.044-13.174-5.162"/><path fill="#232222" d="M688.468 474.933c3.315-11.891 3.126-27.522 15.594-35.142-2.048 3.286-8.91 9.053-8.633 12.852l.561.237c2.102.901 2.638 1.156 4.465 2.485 1.2 2.92 4.504 11.01 4.195 14.069-.777-1.777-1.338-3.661-2.869-4.744-2.237-.257-1.266-.471-3.097.279-2.11 3.079 1.366 10.594 2.275 14.406-4.481-1.398-8.112-2.733-12.491-4.442"/><path fill="#232222" d="M324.2 438.558c2.49 1.538 3.541 2.348 5.366 4.572-3.004-1.15-7.362 1.877-10.158 3.322l.823-1.665c1.494-3.081 1.912-3.58 3.969-6.229"/><path fill="#64f343" d="M502.825 305.716c50.259-2.59 103.859 8.518 147.166 34.573 21.516 12.945 48.162 34.941 61.611 56.33a106 106 0 0 1 13.199 31.315c-31.208-.001-38.474 16.282-43.05 44.457l-6.921-2.741c2.333-14.905 4.165-30.241 6.215-45.216.674-9.243 3.467-19.451 3.019-28.676-1.275-26.23-19.341-35.712-42.741-24.804-18.345 8.552-37.496 15.932-55.66 24.457-9.337-14.313-17.301-30.829-26.501-45.37-9.652-15.256-13.326-29.773-34.905-29.875-15.671 1.644-21.306 11.327-28.504 23.705-2.605 4.482-5.422 9.09-8.082 13.56l-25.686 42.916c-17.063-4.983-33.942-11.728-50.839-17.224-9.958-3.239-23.577-9.543-33.875-8.135a27.57 27.57 0 0 0-18.576 11.051 32.2 32.2 0 0 0-6.073 16.448c-.513 7.05 3.356 24.799 4.815 32.807a1598 1598 0 0 1 7.53 43.687l-15.372 5.196c-.401-9.591-3.35-26.124-6.982-34.681-4.588-10.806-10.841-15.704-21.383-19.999-3.064-6.269-2.778-9.751-7.633-15.197l-.559-.622c.894-9.134 11.632-24.285 17.553-31.108 9.26-10.671 21.526-21.179 32.939-29.547 42.748-31.345 87.187-43.583 139.295-47.307"/><defs><linearGradient id="c" x1="248.604" x2="239.691" y1="615.024" y2="459.277" gradientUnits="userSpaceOnUse"><stop offset="0" stop-color="#1f1e1e"/><stop offset="1" stop-color="#484747"/></linearGradient></defs><path fill="url(#c)" d="M249.537 456.871c3.224-1.747 15.019-6.626 17.496-3.016-.309 1.115-.438 1.61-.855 2.691-9.759 42.642-12.222 116.894 1.561 158.388-13.147-.844-19.243-2.084-28.868-12.443-12.767-13.74-19.587-41.915-19.866-60.564-.236-29.947 3.464-66.692 30.532-85.056"/><defs><linearGradient id="d" x1="242.045" x2="222.581" y1="504.214" y2="492.858" gradientUnits="userSpaceOnUse"><stop offset="0" stop-color="#3e3d3e"/><stop offset="1" stop-color="#5a5959"/></linearGradient></defs><path fill="url(#d)" d="M249.537 456.871c1.842 1.487 2.213 1.473 3.078 3.591-26.488 18.165-28.748 53.141-32.418 81.937l-.664.176-.528-.648c-.236-29.947 3.464-66.692 30.532-85.056"/><path fill="#525152" d="M249.537 456.871c3.224-1.747 15.019-6.626 17.496-3.016-.309 1.115-.438 1.61-.855 2.691-4.386 1.043-9.447 2.172-13.563 3.916-.865-2.118-1.236-2.104-3.078-3.591"/><defs><linearGradient id="e" x1="751.541" x2="805.446" y1="587.571" y2="468.873" gradientUnits="userSpaceOnUse"><stop offset="0" stop-color="#202020"/><stop offset="1" stop-color="#4e4d4d"/></linearGradient></defs><path fill="url(#e)" d="M762.463 453.034c10.313.03 19.652 2.371 26.712 10.309 28.154 31.656 27.068 90.662 10.303 126.912-8.274 16.569-19.034 23.701-37.248 24.727 3.267-7.915 4.614-17.214 6.004-25.641 5.497-40.277 6.149-81.479-1.58-121.598-1.07-5.556-1.899-9.554-4.191-14.709"/><path fill="#232222" d="m768.234 589.341.097 1.015c.178 2.038-.457 3.36.2 5.191 2.787.529 10.805-3.164 14.082-3.593 4.21-.55 12.971-1.865 16.865-1.699-8.274 16.569-19.034 23.701-37.248 24.727 3.267-7.915 4.614-17.214 6.004-25.641"/><path fill="#525152" d="M505.806 260.717c77.243-4.899 168.11 27.874 215.223 91.226 2.99 4.021 8.976 11.672 10.706 15.966-.984.993-1.159.921-2.505 1.422-1.429-1.4-3.931-5.864-5.252-7.753-9.115-13.043-20.573-24.868-32.736-35.004a246.9 246.9 0 0 0-111.771-53.98c-12.508-2.573-25.339-4.662-38.085-5.506-4.178-.277-8.572-.267-12.647-1.113-13.069.435-24.461.019-37.682 1.16-60.282 5.202-119.71 28.637-163.006 71.703-6.96 6.922-13.596 14.793-18.893 23.057-1.507 2.347-4.77 7.545-8.094 5.974-.287-4.575 16.98-24.82 20.914-29.059 48.051-51.774 114.83-74.489 183.828-78.093"/><path d="M327.964 550.267c5.382 4.579 44.606 39.318 45.043 43.27.222 2.015-.68 4.127-1.511 5.913-3.477 7.477-8.159 14.709-12.204 21.91l-24.869 44.268c-2.813 5.019-12.554 18.985-8.974 23.79 5.371 2.772 22.53.785 29.563.368l47.69-3.053c23.328-1.578 21.887-4.516 26.008 18.53.446 2.493 1.047 5.333 1.535 7.821l7.812 38.965c1.186 6.042 2.885 20.199 6.835 23.969 6.391 2.065 28.322-20.437 34.168-25.781l26.593-24.007c3.711-3.355 8.756-9.2 13.312-11.194.986-.431 1.493-.536 2.535-.294 5.552 1.288 47.674 37.468 54.812 43.342 4.23 3.481 9.278 8.781 14.203 10.949 1.87.823 4.641.971 6.41-.205 1.626-1.08 2.409-3.783 2.892-5.546 2.019-7.378 2.698-15.559 3.946-23.125l7.235-41.525c1.026-5.878 1.635-12.271 3.343-17.96.578-1.924 1.557-4.458 3.271-5.664 2.132-1.501 59.407-4.145 67.172-4.623 7.04-.433 16.324.034 22.994-2.155 2.173-.714 4.22-1.591 4.339-4.17.403-8.679-45.375-69.036-44.964-77.671.101-2.113 2.601-4.489 4.018-5.953 9.994-10.326 20.474-20.915 31.182-30.484l1.086 1.534c-.387 8.776-.769 35.562-5.609 41.652-1.88 1.387-3.67 2.81-5.722 3.918l-3.871 2.161c-.158 8.934 1.273 20.086 7.706 26.822 11.012 11.53 26.784 8.951 29.301 10.907 4.934 10.906 11.922 14.768 12.586 29.567.459 10.231.182 18.26-7.207 26.588a29.52 29.52 0 0 1-14.086 8.85c-5.789 1.646-23.526 2.227-30.33 2.668a2933 2933 0 0 1-50.368 3.262c-2.99 19.517-7.173 39-10.192 58.535-.958 6.199-2.017 13.973-3.844 19.858a26.3 26.3 0 0 1-4.864 8.954c-8.525 10.245-24.675 14.227-36.5 6.895-7.474-4.635-15.586-11.808-22.533-17.399-12.189-9.812-24.746-19.487-36.645-29.634a3277 3277 0 0 1-40.393 36.239c-4.596 4.041-14.298 12.905-18.935 15.904a27.8 27.8 0 0 1-8.933 3.746 28.34 28.34 0 0 1-21.715-3.603 27.53 27.53 0 0 1-10.181-12.022c-2.292-5.362-4.505-18.743-5.802-24.968-3.45-16.56-6.456-33.321-10.023-49.868l-52.448 3.098c-9.602.582-19.846 1.649-29.482 1.117-11.606-.642-22.529-10.166-24.914-21.421-3.947-18.631 4.003-30.054 13.016-45.362 4.712-8.004 9.288-16.299 14.336-24.341 9.437-6.322 10.921-10.584 13.994-20.966.762-2.573 2.144-4.417 2.942-7.759-1.515-1.378-2.626-2.541-4.438-3.529l-.794.411.084-1.492c-1.395-2.044-3.335-3.273-5.489-4.432-2.531-2.041-3.432-5.565-3.71-9.305-.799-10.771-2.24-22.587-2.121-33.386.008-.725 1.249-2.301 1.709-2.884"/><path d="M484.075 492.174c35.635-1.565 50.677 59.732 35.145 85.45-11.081 18.346-24.019 24.631-43.645 14.011-10.412-7.235-15.905-16.792-19.776-28.629 28.735 5.601 26.758-42.844-3.465-29.059 1.282-19.491 10.294-39.276 31.741-41.773"/><path d="M576.195 471.612c37.665-2.841 52.294 54.863 38.636 82.365-8.879 17.88-22.242 26.565-41.928 17.58-11.512-6.661-17.594-16.985-21.912-29.14 4.164.31 5.534.737 9.787-.911a15.74 15.74 0 0 0 8.999-8.975c3.249-8.157-.093-18.259-8.737-21.312-5.389-1.903-9.35-.453-14.149 1.908.659-18.434 9.549-37.86 29.304-41.515"/><path d="M809.965 327.179c16.102-.025 19.974 17.969 11.325 24.482-8.507 6.405-27.866 22.061-37.164 26.253-12.779 2.339-19.713-11.661-13.751-18.498 8.062-9.245 23.46-21.574 32.975-30.148 1.426-1.285 4.938-1.836 6.615-2.089"/><path d="M340.624 751.567c12.261-1.06 20.328 9.029 13.163 19.75-6.108 9.139-14.083 17.549-20.705 26.379-4.34 5.787-6.201 7.712-13.344 9.288-2.101.053-4.483-.173-6.462-.89a13.95 13.95 0 0 1-8.004-7.702c-1.132-2.732-1.525-9.184.146-11.307 6.478-8.232 26.439-32.23 35.206-35.518"/><path d="M693.713 735.167c9.702.252 23.134 16.718 31.095 22.423 12.107 8.676 14.221 23.845-2.305 29.042-10.161.691-12.878-3.757-19.25-10.56-5.713-6.652-13.384-12.54-18.735-19.404-7.57-9.711-2.296-19.652 9.195-21.501"/><path d="M621.316 197.154c26.42-.473 12.266 28.123 6.62 40.827-3.553 7.995-3.423 14.31-12.154 18.316-24.34 5.941-13.438-25.12-10.16-36.131 3.299-11.079 2.216-20.033 15.694-23.012"/><path d="M211.457 379.622c4.549.268 10.032 2.825 13.732 5.981 6.696 5.711 26.624 13.485 28.239 22.691 1.621 9.238-4.623 14.17-12.952 15.315l-.683-.169c-7.934-1.879-27.445-12.344-35.083-16.651-11.754-6.627-9.412-24.33 6.747-27.167"/></svg>